# Blender v2.78 (sub 0) OBJ File: 'box.blend'
# www.blender.org
mtllib box.mtl
o Plane
v -5.019738 -0.189533 4.826665
v 4.859358 -0.189533 4.826665
v -5.019738 -0.189533 -5.052431
v 4.859358 -0.189533 -5.052431
vn 0.0000 1.0000 0.0000
usemtl Material.001
s off
f 1//1 2//1 4//1 3//1
o Cube
v 0.476078 0.426916 -0.476078
v 0.476078 0.426916 0.476078
v -0.476078 0.426916 0.476078
v -0.476078 0.426916 -0.476078
v 0.476078 1.379072 -0.476078
v 0.476078 1.379072 0.476078
v -0.476078 1.379072 0.476078
v -0.476078 1.379072 -0.476078
vn 0.0000 -1.0000 0.0000
vn 0.0000 1.0000 0.0000
vn 1.0000 0.0000 0.0000
vn -0.0000 -0.0000 1.0000
vn -1.0000 -0.0000 -0.0000
vn 0.0000 0.0000 -1.0000
usemtl Material
s off
f 5//2 6//2 7//2 8//2
f 9//3 12//3 11//3 10//3
f 5//4 9//4 10//4 6//4
f 6//5 10//5 11//5 7//5
f 7//6 11//6 12//6 8//6
f 9//7 5//7 8//7 12//7
