# Blender v2.78 (sub 0) OBJ File: ''
# www.blender.org
mtllib exampleBlend.mtl
o Cube_Cube.001
v -0.304700 -0.763536 -0.532916
v -0.304700 0.036464 -0.532916
v -0.304700 0.036464 -1.332916
v -0.304700 -0.763536 -1.332916
v 0.495300 0.036464 -1.332916
v 0.495300 -0.763536 -1.332916
v 0.495300 0.036464 -0.532916
v 0.495300 -0.763536 -0.532916
v -1.904700 -0.763536 -1.589296
v 2.095300 -0.763536 -1.589296
v 2.095300 1.236464 -1.589296
v -1.904700 1.236464 -1.589296
v -1.904700 -0.763536 2.410704
v 2.095300 -0.763536 2.410704
v 2.095300 -0.763536 -1.589296
v -1.904700 -0.763536 -1.589296
v -0.667098 -0.455252 0.468692
v -0.667098 -0.424802 0.315618
v -0.608520 -0.424802 0.327270
v -0.667098 -0.338094 0.185848
v -0.667098 -0.208324 0.099140
v -0.525676 -0.208324 0.127270
v -0.558858 -0.338094 0.207378
v -0.667098 -0.055252 0.068690
v -0.667098 0.097822 0.099140
v -0.525676 0.097822 0.127270
v -0.514024 -0.055252 0.099140
v -0.667098 0.227592 0.185848
v -0.667098 0.314300 0.315618
v -0.608520 0.314300 0.327270
v -0.558858 0.227592 0.207378
v -0.667098 0.344750 0.468692
v -0.558858 0.314300 0.360452
v -0.467098 0.227592 0.268692
v -0.467098 -0.338094 0.268692
v -0.558858 -0.424802 0.360452
v -0.384256 -0.055252 0.185848
v -0.405786 -0.208324 0.207378
v -0.405786 0.097822 0.207378
v -0.405786 -0.338094 0.360452
v -0.525676 -0.424802 0.410112
v -0.297546 -0.055252 0.315618
v -0.325676 -0.208324 0.327270
v -0.405786 0.227592 0.360452
v -0.325676 0.097822 0.327270
v -0.525676 0.314300 0.410112
v -0.514024 0.314300 0.468692
v -0.514024 -0.424802 0.468692
v -0.297546 -0.208324 0.468692
v -0.384256 -0.338094 0.468692
v -0.297546 0.097822 0.468692
v -0.267098 -0.055252 0.468692
v -0.384256 0.227592 0.468692
v -0.325676 -0.208324 0.610112
v -0.405786 -0.338094 0.576930
v -0.325676 0.097822 0.610112
v -0.297546 -0.055252 0.621764
v -0.525676 0.314300 0.527270
v -0.405786 0.227592 0.576930
v -0.525676 -0.424802 0.527270
v -0.467098 -0.338094 0.668692
v -0.558858 -0.424802 0.576930
v -0.384256 -0.055252 0.751534
v -0.405786 -0.208324 0.730004
v -0.467098 0.227592 0.668692
v -0.405786 0.097822 0.730004
v -0.558858 0.314300 0.576930
v -0.514024 -0.055252 0.838242
v -0.525676 -0.208324 0.810112
v -0.558858 0.227592 0.730004
v -0.525676 0.097822 0.810112
v -0.608520 0.314300 0.610112
v -0.608520 -0.424802 0.610112
v -0.558858 -0.338094 0.730004
v -0.667098 -0.424802 0.621764
v -0.667098 -0.208324 0.838242
v -0.667098 -0.338094 0.751534
v -0.667098 0.097822 0.838242
v -0.667098 -0.055252 0.868690
v -0.667098 0.314300 0.621764
v -0.667098 0.227592 0.751534
v -0.808520 0.097822 0.810112
v -0.820172 -0.055252 0.838242
v -0.725676 0.314300 0.610112
v -0.775338 0.227592 0.730004
v -0.775338 -0.338094 0.730004
v -0.725676 -0.424802 0.610112
v -0.808520 -0.208324 0.810112
v -0.867098 -0.338094 0.668690
v -0.775338 -0.424802 0.576930
v -0.949940 -0.055252 0.751534
v -0.928410 -0.208324 0.730004
v -0.867098 0.227592 0.668690
v -0.928410 0.097822 0.730004
v -0.775338 0.314300 0.576930
v -0.928410 0.227592 0.576930
v -1.008520 0.097822 0.610112
v -0.808520 0.314300 0.527270
v -0.808520 -0.424802 0.527270
v -1.008520 -0.208324 0.610112
v -0.928410 -0.338094 0.576930
v -1.036650 -0.055252 0.621764
v -0.820172 -0.424802 0.468690
v -1.036650 -0.208324 0.468690
v -0.949940 -0.338094 0.468690
v -1.036650 0.097822 0.468690
v -1.067098 -0.055252 0.468690
v -0.820172 0.314300 0.468690
v -0.949940 0.227592 0.468690
v -0.808520 0.314300 0.410112
v -0.928410 0.227592 0.360452
v -0.928410 -0.338094 0.360452
v -0.808520 -0.424802 0.410112
v -1.036650 -0.055252 0.315618
v -1.008520 -0.208324 0.327270
v -1.008520 0.097822 0.327270
v -0.867098 -0.338094 0.268692
v -0.775338 -0.424802 0.360452
v -0.949940 -0.055252 0.185848
v -0.928410 -0.208324 0.207378
v -0.867098 0.227592 0.268692
v -0.928410 0.097822 0.207378
v -0.775338 0.314300 0.360452
v -0.725676 0.314300 0.327270
v -0.725676 -0.424802 0.327270
v -0.808520 -0.208324 0.127270
v -0.775338 -0.338094 0.207378
v -0.808520 0.097822 0.127270
v -0.820172 -0.055252 0.099140
v -0.775338 0.227592 0.207378
vn 0.0388 -0.9800 -0.1950
vn 0.1632 -0.5481 -0.8203
vn 0.1915 0.1915 -0.9626
vn 0.1098 0.8264 -0.5522
vn 0.1098 -0.8264 -0.5522
vn 0.1915 -0.1915 -0.9626
vn 0.1632 0.5481 -0.8203
vn 0.0388 0.9800 -0.1950
vn 0.3128 0.8264 -0.4681
vn 0.3128 -0.8264 -0.4681
vn 0.5453 -0.1915 -0.8161
vn 0.4647 0.5481 -0.6954
vn 0.1104 0.9800 -0.1653
vn 0.1104 -0.9800 -0.1653
vn 0.4647 -0.5481 -0.6954
vn 0.5453 0.1915 -0.8161
vn 0.4681 -0.8264 -0.3128
vn 0.8161 -0.1915 -0.5453
vn 0.6954 0.5481 -0.4647
vn 0.1653 0.9800 -0.1104
vn 0.1653 -0.9800 -0.1104
vn 0.6954 -0.5481 -0.4647
vn 0.8161 0.1915 -0.5453
vn 0.4681 0.8264 -0.3128
vn 0.1950 0.9800 -0.0388
vn 0.1950 -0.9800 -0.0388
vn 0.8203 -0.5481 -0.1632
vn 0.9626 0.1915 -0.1915
vn 0.5522 0.8264 -0.1098
vn 0.5522 -0.8264 -0.1098
vn 0.9626 -0.1915 -0.1915
vn 0.8203 0.5481 -0.1632
vn 0.8203 -0.5481 0.1632
vn 0.9626 0.1915 0.1915
vn 0.5522 0.8264 0.1098
vn 0.5522 -0.8264 0.1098
vn 0.9626 -0.1915 0.1915
vn 0.8203 0.5481 0.1632
vn 0.1950 0.9800 0.0388
vn 0.1950 -0.9800 0.0388
vn 0.4681 -0.8264 0.3128
vn 0.8161 -0.1915 0.5453
vn 0.6954 0.5481 0.4647
vn 0.1653 0.9800 0.1104
vn 0.1653 -0.9800 0.1104
vn 0.6954 -0.5481 0.4647
vn 0.8161 0.1915 0.5453
vn 0.4681 0.8264 0.3128
vn 0.5453 -0.1915 0.8161
vn 0.4647 0.5481 0.6954
vn 0.1104 0.9800 0.1653
vn 0.1104 -0.9800 0.1653
vn 0.4647 -0.5481 0.6954
vn 0.5453 0.1915 0.8161
vn 0.3128 0.8264 0.4681
vn 0.3128 -0.8264 0.4681
vn 0.0388 -0.9800 0.1950
vn 0.1632 -0.5481 0.8203
vn 0.1915 0.1915 0.9626
vn 0.1098 0.8264 0.5522
vn 0.1098 -0.8264 0.5522
vn 0.1915 -0.1915 0.9626
vn 0.1632 0.5481 0.8203
vn 0.0388 0.9800 0.1950
vn -0.1915 0.1915 0.9626
vn -0.1098 0.8264 0.5522
vn -0.1098 -0.8264 0.5522
vn -0.1915 -0.1915 0.9626
vn -0.1632 0.5481 0.8203
vn -0.0388 0.9800 0.1950
vn -0.0388 -0.9800 0.1950
vn -0.1632 -0.5481 0.8203
vn -0.3128 -0.8264 0.4681
vn -0.5453 -0.1915 0.8161
vn -0.4647 0.5481 0.6954
vn -0.1104 0.9800 0.1653
vn -0.1104 -0.9800 0.1653
vn -0.4647 -0.5481 0.6954
vn -0.5453 0.1915 0.8161
vn -0.3128 0.8264 0.4681
vn -0.6954 0.5481 0.4647
vn -0.1653 0.9800 0.1104
vn -0.1653 -0.9800 0.1104
vn -0.6954 -0.5481 0.4647
vn -0.8161 0.1915 0.5453
vn -0.4681 0.8264 0.3128
vn -0.4681 -0.8264 0.3128
vn -0.8161 -0.1915 0.5453
vn -0.1950 -0.9800 0.0388
vn -0.8203 -0.5481 0.1632
vn -0.9626 0.1915 0.1915
vn -0.5522 0.8264 0.1098
vn -0.5522 -0.8264 0.1098
vn -0.9626 -0.1915 0.1915
vn -0.8203 0.5481 0.1632
vn -0.1950 0.9800 0.0388
vn -0.5522 0.8264 -0.1098
vn -0.5522 -0.8264 -0.1098
vn -0.9626 -0.1915 -0.1915
vn -0.8203 0.5481 -0.1632
vn -0.1950 0.9800 -0.0388
vn -0.1950 -0.9800 -0.0388
vn -0.8203 -0.5481 -0.1632
vn -0.9626 0.1915 -0.1915
vn -0.4681 -0.8264 -0.3128
vn -0.8161 -0.1915 -0.5453
vn -0.6954 0.5481 -0.4647
vn -0.1653 0.9800 -0.1104
vn -0.1653 -0.9800 -0.1104
vn -0.6954 -0.5481 -0.4647
vn -0.8161 0.1915 -0.5453
vn -0.4681 0.8264 -0.3128
vn -0.1104 0.9800 -0.1653
vn -0.1104 -0.9800 -0.1653
vn -0.4647 -0.5481 -0.6954
vn -0.5453 0.1915 -0.8161
vn -0.3128 0.8264 -0.4681
vn -0.3128 -0.8264 -0.4681
vn -0.5453 -0.1915 -0.8161
vn -0.4647 0.5481 -0.6954
vn -0.1632 -0.5481 -0.8203
vn -0.1915 0.1915 -0.9626
vn -0.1098 0.8264 -0.5522
vn -0.1098 -0.8264 -0.5522
vn -0.1915 -0.1915 -0.9626
vn -0.1632 0.5481 -0.8203
vn -0.0388 0.9800 -0.1950
vn -0.0388 -0.9800 -0.1950
vn 0.0000 -0.0000 1.0000
vn -1.0000 -0.0000 0.0000
vn 0.0000 0.0000 -1.0000
vn 1.0000 -0.0000 0.0000
vn 0.0000 -1.0000 -0.0000
vn 0.0000 1.0000 0.0000
usemtl Sphere
s 1
f 17//1 18//1 19//1
f 20//2 21//2 22//2 23//2
f 24//3 25//3 26//3 27//3
f 28//4 29//4 30//4 31//4
f 18//5 20//5 23//5 19//5
f 21//6 24//6 27//6 22//6
f 25//7 28//7 31//7 26//7
f 29//8 32//8 30//8
f 31//9 30//9 33//9 34//9
f 19//10 23//10 35//10 36//10
f 22//11 27//11 37//11 38//11
f 26//12 31//12 34//12 39//12
f 30//13 32//13 33//13
f 17//14 19//14 36//14
f 23//15 22//15 38//15 35//15
f 27//16 26//16 39//16 37//16
f 36//17 35//17 40//17 41//17
f 38//18 37//18 42//18 43//18
f 39//19 34//19 44//19 45//19
f 33//20 32//20 46//20
f 17//21 36//21 41//21
f 35//22 38//22 43//22 40//22
f 37//23 39//23 45//23 42//23
f 34//24 33//24 46//24 44//24
f 46//25 32//25 47//25
f 17//26 41//26 48//26
f 40//27 43//27 49//27 50//27
f 42//28 45//28 51//28 52//28
f 44//29 46//29 47//29 53//29
f 41//30 40//30 50//30 48//30
f 43//31 42//31 52//31 49//31
f 45//32 44//32 53//32 51//32
f 50//33 49//33 54//33 55//33
f 52//34 51//34 56//34 57//34
f 53//35 47//35 58//35 59//35
f 48//36 50//36 55//36 60//36
f 49//37 52//37 57//37 54//37
f 51//38 53//38 59//38 56//38
f 47//39 32//39 58//39
f 17//40 48//40 60//40
f 60//41 55//41 61//41 62//41
f 54//42 57//42 63//42 64//42
f 56//43 59//43 65//43 66//43
f 58//44 32//44 67//44
f 17//45 60//45 62//45
f 55//46 54//46 64//46 61//46
f 57//47 56//47 66//47 63//47
f 59//48 58//48 67//48 65//48
f 64//49 63//49 68//49 69//49
f 66//50 65//50 70//50 71//50
f 67//51 32//51 72//51
f 17//52 62//52 73//52
f 61//53 64//53 69//53 74//53
f 63//54 66//54 71//54 68//54
f 65//55 67//55 72//55 70//55
f 62//56 61//56 74//56 73//56
f 17//57 73//57 75//57
f 74//58 69//58 76//58 77//58
f 68//59 71//59 78//59 79//59
f 70//60 72//60 80//60 81//60
f 73//61 74//61 77//61 75//61
f 69//62 68//62 79//62 76//62
f 71//63 70//63 81//63 78//63
f 72//64 32//64 80//64
f 79//65 78//65 82//65 83//65
f 81//66 80//66 84//66 85//66
f 75//67 77//67 86//67 87//67
f 76//68 79//68 83//68 88//68
f 78//69 81//69 85//69 82//69
f 80//70 32//70 84//70
f 17//71 75//71 87//71
f 77//72 76//72 88//72 86//72
f 87//73 86//73 89//73 90//73
f 88//74 83//74 91//74 92//74
f 82//75 85//75 93//75 94//75
f 84//76 32//76 95//76
f 17//77 87//77 90//77
f 86//78 88//78 92//78 89//78
f 83//79 82//79 94//79 91//79
f 85//80 84//80 95//80 93//80
f 94//81 93//81 96//81 97//81
f 95//82 32//82 98//82
f 17//83 90//83 99//83
f 89//84 92//84 100//84 101//84
f 91//85 94//85 97//85 102//85
f 93//86 95//86 98//86 96//86
f 90//87 89//87 101//87 99//87
f 92//88 91//88 102//88 100//88
f 17//89 99//89 103//89
f 101//90 100//90 104//90 105//90
f 102//91 97//91 106//91 107//91
f 96//92 98//92 108//92 109//92
f 99//93 101//93 105//93 103//93
f 100//94 102//94 107//94 104//94
f 97//95 96//95 109//95 106//95
f 98//96 32//96 108//96
f 109//97 108//97 110//97 111//97
f 103//98 105//98 112//98 113//98
f 104//99 107//99 114//99 115//99
f 106//100 109//100 111//100 116//100
f 108//101 32//101 110//101
f 17//102 103//102 113//102
f 105//103 104//103 115//103 112//103
f 107//104 106//104 116//104 114//104
f 113//105 112//105 117//105 118//105
f 115//106 114//106 119//106 120//106
f 116//107 111//107 121//107 122//107
f 110//108 32//108 123//108
f 17//109 113//109 118//109
f 112//110 115//110 120//110 117//110
f 114//111 116//111 122//111 119//111
f 111//112 110//112 123//112 121//112
f 123//113 32//113 124//113
f 17//114 118//114 125//114
f 117//115 120//115 126//115 127//115
f 119//116 122//116 128//116 129//116
f 121//117 123//117 124//117 130//117
f 118//118 117//118 127//118 125//118
f 120//119 119//119 129//119 126//119
f 122//120 121//120 130//120 128//120
f 127//121 126//121 21//121 20//121
f 129//122 128//122 25//122 24//122
f 130//123 124//123 29//123 28//123
f 125//124 127//124 20//124 18//124
f 126//125 129//125 24//125 21//125
f 128//126 130//126 28//126 25//126
f 124//127 32//127 29//127
f 17//128 125//128 18//128
usemtl GlossyPlane
f 9//129 10//129 11//129 12//129
usemtl Cube
f 1//130 2//130 3//130 4//130
f 4//131 3//131 5//131 6//131
f 6//132 5//132 7//132 8//132
f 8//129 7//129 2//129 1//129
f 4//133 6//133 8//133 1//133
f 5//134 3//134 2//134 7//134
usemtl Plain
f 13//134 14//134 15//134 16//134
